<?xml version="1.0" encoding="UTF-8"?>
<svg version="1.1" xmlns="http://www.w3.org/2000/svg" width="512" height="512">
<path d="M0 0 C2.23721994 -0.00435471 4.47443839 -0.00954038 6.71165466 -0.01548767 C12.75324797 -0.02880886 18.79477846 -0.02946391 24.83638358 -0.02692437 C29.89791383 -0.02584973 34.95943163 -0.03075072 40.0209592 -0.03552979 C52.65505367 -0.04723328 65.28910998 -0.0464136 77.92320386 -0.03997298 C88.85087649 -0.03480958 99.77845982 -0.04604962 110.70611479 -0.0650712 C121.97175007 -0.08452815 133.23734446 -0.09240157 144.50300056 -0.08894795 C150.80965122 -0.08714401 157.11622013 -0.08968163 163.42285728 -0.10366249 C169.35983352 -0.11633276 175.2966325 -0.11421056 181.23360634 -0.1012516 C183.39775276 -0.09890597 185.56191203 -0.1015471 187.7260437 -0.10987473 C217.40821866 -0.21574964 245.77047154 4.85131795 268.59887695 25.2746582 C269.43805664 25.98364258 270.27723633 26.69262695 271.1418457 27.4230957 C286.26150947 40.46123239 296.48619853 57.59077273 302.28637695 76.5871582 C302.48900146 77.2378125 302.69162598 77.8884668 302.90039062 78.55883789 C307.01379067 92.73350804 306.89243379 107.06233204 306.87353516 121.67578125 C306.87788987 123.91300119 306.88307553 126.15021964 306.88902283 128.38743591 C306.90234402 134.42902922 306.90299907 140.47055971 306.90045953 146.51216483 C306.89938489 151.57369508 306.90428588 156.63521288 306.90906495 161.69674045 C306.92076844 174.33083492 306.91994876 186.96489123 306.91350814 199.59898511 C306.90834474 210.52665774 306.91958478 221.45424107 306.93860636 232.38189604 C306.95806331 243.64753132 306.96593672 254.91312571 306.96248311 266.17878181 C306.96067917 272.48543247 306.96321679 278.79200138 306.97719765 285.09863853 C306.98986792 291.03561477 306.98774572 296.97241375 306.97478676 302.90938759 C306.97244113 305.07353401 306.97508226 307.23769328 306.98340988 309.40182495 C307.1071937 344.10478449 298.99258053 371.92131893 274.8996582 397.9699707 C262.52429516 410.36634455 246.93494442 418.87884054 230.28637695 423.9621582 C229.63572266 424.16478271 228.98506836 424.36740723 228.31469727 424.57617188 C214.14002712 428.68957192 199.81120311 428.56821504 185.19775391 428.54931641 C182.96053397 428.55367112 180.72331552 428.55885678 178.48609924 428.56480408 C172.44450593 428.57812527 166.40297545 428.57878032 160.36137033 428.57624078 C155.29984007 428.57516614 150.23832227 428.58006713 145.17679471 428.5848462 C132.54270024 428.59654969 119.90864392 428.59573001 107.27455004 428.58928939 C96.34687742 428.58412599 85.41929409 428.59536603 74.49163911 428.61438761 C63.22600383 428.63384456 51.96040944 428.64171797 40.69475335 428.63826436 C34.38810269 428.63646042 28.08153378 428.63899804 21.77489662 428.6529789 C15.83792038 428.66564917 9.90112141 428.66352697 3.96414757 428.65056801 C1.80000114 428.64822238 -0.36415812 428.65086351 -2.52828979 428.65919113 C-37.23124934 428.78297495 -65.04778378 420.66836178 -91.09643555 396.57543945 C-103.4928094 384.20007641 -112.00530538 368.61072567 -117.08862305 351.9621582 C-117.29124756 351.31150391 -117.49387207 350.66084961 -117.70263672 349.99047852 C-121.81603676 335.81580837 -121.69467989 321.48698436 -121.67578125 306.87353516 C-121.68013596 304.63631522 -121.68532163 302.39909677 -121.69126892 300.16188049 C-121.70459011 294.12028718 -121.70524516 288.0787567 -121.70270562 282.03715158 C-121.70163098 276.97562132 -121.70653197 271.91410352 -121.71131104 266.85257596 C-121.72301453 254.21848149 -121.72219485 241.58442517 -121.71575423 228.95033129 C-121.71059083 218.02265867 -121.72183087 207.09507534 -121.74085245 196.16742036 C-121.7603094 184.90178508 -121.76818282 173.63619069 -121.7647292 162.3705346 C-121.76292526 156.06388394 -121.76546288 149.75731503 -121.77944374 143.45067787 C-121.79211401 137.51370163 -121.78999181 131.57690266 -121.77703285 125.63992882 C-121.77468722 123.47578239 -121.77732835 121.31162313 -121.78565598 119.14749146 C-121.89193392 89.35232678 -116.70008513 61.26987711 -96.40112305 38.2746582 C-95.69084961 37.43290039 -94.98057617 36.59114258 -94.2487793 35.72387695 C-81.20133077 20.61268437 -64.08650738 10.38779428 -45.08862305 4.5871582 C-44.43796875 4.38453369 -43.78731445 4.18190918 -43.11694336 3.97314453 C-28.94227321 -0.14025551 -14.61344921 -0.01889864 0 0 Z " fill="#696BFB" transform="translate(163.401123046875,41.725341796875)"/>
<path d="M0 0 C5.02516433 0.06574981 8.44863564 2.23778206 12.25 5.375 C15.16299066 8.47005257 15.48871781 11.19831108 15.6875 15.3125 C15.52885443 19.76344438 14.74731194 23.61850585 13.4708252 27.88024902 C12.92598228 29.72588692 12.92598228 29.72588692 12.37013245 31.60881042 C12.00048874 32.85165298 11.63084503 34.09449554 11.25 35.375 C10.60153535 37.64274113 9.9565905 39.91149194 9.31530762 42.18127441 C8.82350258 43.91362335 8.82350258 43.91362335 8.32176208 45.68096924 C7.97774857 46.89290955 7.63373505 48.10484985 7.27929688 49.35351562 C3.48703071 62.70859314 -0.31658354 76.06041757 -4.12618256 89.41056061 C-6.42497586 97.46740177 -8.71973271 105.52535362 -11.00537109 113.5859375 C-13.01034705 120.65668555 -15.02274127 127.72527247 -17.04404211 134.79137182 C-18.11036803 138.52002656 -19.17300701 142.24964146 -20.22669983 145.98188782 C-21.21569168 149.48453673 -22.2145969 152.98420532 -23.2210865 156.48186493 C-23.76173913 158.37031311 -24.29192924 160.26174693 -24.82176208 162.15325928 C-26.90598724 169.35139507 -28.73524457 174.58083643 -34.3125 179.75 C-39.17632433 182.04926241 -43.45890002 182.16236607 -48.75 181.375 C-53.89853681 178.8007316 -56.932008 175.82897599 -58.75 170.375 C-59.46786668 162.99317945 -58.02426605 156.82698641 -55.6875 149.875 C-55.03787687 147.84756458 -54.39219088 145.81886433 -53.75 143.7890625 C-53.41742188 142.74008789 -53.08484375 141.69111328 -52.7421875 140.61035156 C-50.78352151 134.22348106 -49.10971997 127.75890622 -47.41186523 121.29882812 C-45.44406396 113.84803627 -43.35411028 106.43695542 -41.22836304 99.03009033 C-39.17461985 91.8721532 -37.14688378 84.70715958 -35.12890625 77.5390625 C-34.49680005 75.29685942 -33.86463806 73.05467207 -33.23242188 70.8125 C-32.2728274 67.40885822 -31.3139142 64.00503227 -30.35717773 60.60058594 C-26.98619955 48.6091278 -23.57434931 36.63310293 -19.96484375 24.7109375 C-19.68532364 23.78366852 -19.40580353 22.85639954 -19.11781311 21.90103149 C-14.16731192 5.69686313 -14.16731192 5.69686313 -7.75 1.375 C-5.17199369 0.25786393 -2.83391739 0.28339174 0 0 Z " fill="#B2B4FD" transform="translate(277.75,164.625)"/>
<path d="M0 0 C5.4391589 2.31411488 9.52960606 5.54454671 12 11 C12.99446977 16.11192358 12.74136234 20.4959737 9.859375 24.9140625 C4.72613394 32.25107545 -2.00501312 38.31870648 -8.375 44.5625 C-9.69731189 45.86973773 -11.01893267 47.17767494 -12.33984375 48.48632812 C-15.5519806 51.66567652 -18.77333562 54.8353991 -22 58 C-20.58888029 62.01266267 -19.18592792 63.99983963 -15.73046875 66.59375 C-10.32529849 70.98621342 -5.70327395 76.44155249 -0.9375 81.5 C-0.23044922 82.24636719 0.47660156 82.99273437 1.20507812 83.76171875 C12.46226309 95.70596195 12.46226309 95.70596195 12.3359375 103.55078125 C11.74938205 107.82717974 9.92406612 110.87110799 7 114 C3.35586696 116.7064168 -0.03795609 117.8453858 -4.5 118.5625 C-13.67507354 117.08793461 -20.03317985 109.40700312 -26.30078125 103.09765625 C-27.26821514 102.13224804 -28.23609358 101.16728514 -29.20439148 100.20274353 C-31.22034959 98.19118128 -33.23085051 96.17436293 -35.23754883 94.15356445 C-37.80057241 91.57340441 -40.3768958 89.00701244 -42.95744038 86.4443903 C-44.95410104 84.45860248 -46.94352201 82.46568491 -48.93086815 80.47057915 C-50.33547745 79.06301847 -51.74608999 77.66145661 -53.15681458 76.26002502 C-54.01167953 75.39570358 -54.86654449 74.53138214 -55.74731445 73.64086914 C-56.49817825 72.88761856 -57.24904205 72.13436798 -58.0226593 71.35829163 C-61.66294754 67.01667195 -63.67585306 62.80909871 -63.40077209 57.04618835 C-61.77615387 48.75151182 -53.78722238 42.35114016 -48.09765625 36.69921875 C-47.13224804 35.73178486 -46.16728514 34.76390642 -45.20274353 33.79560852 C-43.19118128 31.77965041 -41.17436293 29.76914949 -39.15356445 27.76245117 C-36.57340441 25.19942759 -34.00701244 22.6231042 -31.4443903 20.04255962 C-29.45860248 18.04589896 -27.46568491 16.05647799 -25.47057915 14.06913185 C-24.06301847 12.66452255 -22.66145661 11.25391001 -21.26002502 9.84318542 C-20.39570358 8.98832047 -19.53138214 8.13345551 -18.64086914 7.25268555 C-17.88761856 6.50182175 -17.13436798 5.75095795 -16.35829163 4.9773407 C-11.46226069 0.87219902 -6.4026203 -1.27093212 0 0 Z " fill="#EFEFFE" transform="translate(196,197)"/>
<path d="M0 0 C6.17418429 3.45341692 10.87694892 8.55335371 15.8515625 13.515625 C17.25624283 14.91032013 17.25624283 14.91032013 18.68930054 16.33319092 C20.66459062 18.29655353 22.63575223 20.26395721 24.60449219 22.23388672 C27.11369788 24.74329559 29.63638306 27.2386587 32.16283607 29.73068619 C34.1189749 31.66446747 36.06583415 33.60739381 38.01029587 35.55290985 C39.38233217 36.92147495 40.76341188 38.28095465 42.14468384 39.64019775 C47.33879184 44.87229884 52.20813892 49.89330408 53.3828125 57.46875 C52.07156724 67.79977326 43.75641561 74.56091259 36.7265625 81.609375 C35.84398773 82.49860657 34.96141296 83.38783813 34.05209351 84.30401611 C32.19393227 86.1722543 30.33309444 88.03783375 28.46972656 89.90087891 C26.56980924 91.80063307 24.67721153 93.70722789 22.79101562 95.62060547 C20.05042743 98.39790649 17.29663355 101.16144676 14.5390625 103.921875 C13.70235016 104.77295837 12.86563782 105.62404175 12.00357056 106.50091553 C6.91155399 111.55380952 1.89656534 116.32013367 -5.50390625 117.34765625 C-11.03201964 116.5819024 -15.01010217 114.98989783 -19 111 C-21.91738506 106.8591954 -22.36246777 103.26118596 -22.49609375 98.34375 C-21.12418952 91.8623127 -15.36346199 87.09693965 -10.828125 82.6328125 C-10.1457074 81.95322479 -9.46328979 81.27363708 -8.76019287 80.57345581 C-6.59480651 78.41920055 -4.42254614 76.27203208 -2.25 74.125 C-0.77427892 72.65931784 0.70098646 71.19317671 2.17578125 69.7265625 C5.77860194 66.14570834 9.38760116 62.57119036 13 59 C11.67841287 56.064996 10.25938118 54.02249651 7.95898438 51.77954102 C7.34494751 51.17533829 6.73091064 50.57113556 6.0982666 49.94862366 C5.43677612 49.30686691 4.77528564 48.66511017 4.09375 48.00390625 C2.69649684 46.6270726 1.29936514 45.25011568 -0.09765625 43.87304688 C-2.30072555 41.71348832 -4.50619684 39.55645415 -6.71435547 37.40209961 C-8.84727463 35.31749362 -10.97087966 33.22373743 -13.09375 31.12890625 C-13.75524048 30.48917374 -14.41673096 29.84944122 -15.0982666 29.19032288 C-19.62619405 24.71166853 -21.74674924 21.61692456 -22.375 15.125 C-22.19731754 9.23926844 -19.61948851 5.5790013 -15.5 1.5625 C-10.43096129 -0.70046371 -5.46157732 -0.96715432 0 0 Z " fill="#EDEEFE" transform="translate(326,198)"/>
</svg>
